# xmcd
#
# Track frame offsets:
#	150
#	39553
#	69808
#	105363
#	145400
#	177608
#	208225
#	228835
#	253835
#
# Disc length: 3717 seconds
#
# Revision: 2
# Processed by: cddbd v1.5.2PL0 Copyright (c) Steve Scherf et al.
# Submitted via: EasyCDDAExtractor 10.0.3.1
#
DISCID=7e0e8309
DTITLE=Arturo toscanini - Debussy-la mer,Prélude à l'après-midi d'un faune, ib
DTITLE=eria, Nocturnes
DYEAR=1900
DGENRE=Symphony
TTITLE0=I. De l'aube a midi sur la mer(From dawn till noon on the sea)
TTITLE1=II. Jeux des vagues(Play of the waves)
TTITLE2=III. Dialogue du vent et de la mer(Dialogue of the wind and the sea)
TTITLE3=Prelude a l'apres-midi d'un faune/prelude to the aftertoon of a faun(P
TTITLE3=relude to the afternoon of a Faun)
TTITLE4=I. Par les rues et par les chemins(In the street of byways)
TTITLE5=II. Les parfumes de  la nuit(Fragrances of the night)
TTITLE6=III. Le martin d'un jour de fete(The morning of a festival day)
TTITLE7=Nocturnes: nuages&fetes
TTITLE8=Nocturnes: nuages&fetes
EXTD=
EXTT0=
EXTT1=
EXTT2=
EXTT3=
EXTT4=
EXTT5=
EXTT6=
EXTT7=
EXTT8=
PLAYORDER=
